<svg xmlns="http://www.w3.org/2000/svg" version="1" width="527" height="424" viewBox="-1.65 -1.9 527.2 424.15"><path fill="#006a6b" d="M206 19q9 4 2 17-6 13-18 21l-11 8-11 7q-12 6-15-6-3-16-3-37-1-24 3-26 4-1 25 5l28 11M378 3q4 3 3 29-1 25-4 38-2 6-13 0-10-6-23-18-13-11-21-21t-5-12q8-4 34-11 27-7 29-5"/><path fill="#005454" d="M151 9l3 15q5 17 11 25l-12 17-2-22q-3-25 0-35M380 8q2 15 0 40l-3 22-6-11-5-8q4-3 9-23l5-20"/><path fill="#0d131a" d="M213 21l2 2-4-1q-11-5-31-11-22-6-25-4-4 2-2 30 1 26 4 36 1 4-1 4l-2-4q-2-3-3-14l-3-22q-2-30 4-34 6-3 30 4 22 7 31 14M379 0q5 3 4 33 0 28-5 40-3 6-4 5l1-6q3-8 3-37 1-29-1-30-3-2-30 6-27 7-36 11-4 2-5 1l3-3q8-5 37-13 29-9 33-7"/><path fill="#006a6b" d="M345 164q-34 20-84 20-53 0-84-24-15-11-22-25-8-15-8-32 0-48 37-72 31-21 78-21 23 0 44 5 22 5 38 16 38 25 38 70 0 40-37 63"/><path fill="#fdeabe" d="M366 103q0 13-9 26-8 13-22 24-15 11-34 18-20 7-41 7-42 0-71-24-12-10-19-23t-7-27q0-34 25-56 9-8 21-13 10-5 19-5 1-1 18 8l16 8 18-7 21-8q9 0 20 5t21 14q24 23 24 53"/><path fill="#fff" d="M225 91l2-6q2-6 4-6 2-1 5 4l2 6q1 1-6 1l-7 1M287 89l2-5q3-4 5-4 3 1 4 6l1 6-12-3"/><path fill="#0d131a" d="M372 133q7-14 7-28 0-44-31-68-31-25-86-25-53 0-83 25-29 25-29 69 0 14 6 28 7 14 21 24 30 24 85 24 56 0 89-24 14-11 21-25m12-28q0 15-7 29-8 15-23 26-33 27-92 27-57 0-89-26-13-11-21-26-7-14-7-29 0-46 32-71 31-26 85-26 57 0 90 25 32 25 32 71"/><path fill="#0d131a" d="M368 103q0 14-8 27-8 14-22 25t-33 17q-21 7-43 7-50 0-78-27-11-11-17-25-5-12-5-24 0-32 23-55 10-9 22-15 11-5 21-5h1l21 11 12 5 13-4 25-11h1q8 0 20 5 11 6 21 15 26 23 26 54m-12 26q7-13 7-26 0-30-24-52-9-9-20-14t-18-5l-21 9-18 6-13-5-21-10q-11 0-22 5-11 6-20 16t-15 22q-5 14-5 28 0 11 5 23 6 13 17 23 26 26 74 26 21 0 40-7 18-6 32-16 14-11 22-23"/><path fill="#0d131a" d="M193 68l-4-1 3-2q10-4 24-4 14-1 22 2l3 2h-4q-9-2-20-1l-24 4M332 64l2 3h-4q-5-4-21-5-15-1-25 2l-3-1 2-2q11-3 27-2 15 1 22 5M297 90l3 2-3 1q-11-3-33-3-21 0-37 2h-3q-1-1 2-2 15-4 37-4 23 0 34 4"/><path fill="#0d131a" d="M231 81l-2 4-2 5-2 1q-1-3 1-8 1-5 4-6 2-1 6 4l4 7-2 2-1-1-3-5q-1-3-3-3M295 78q3 1 4 5l1 9h-2l-1-2-1-5-2-3-3 2-3 5-1 1q-2 0-1-1 0-5 4-8 3-4 5-3"/><path fill="#006a6b" d="M119 155l19 114q-7 6-27 18-21 12-35 18-20 9-34 10-19 2-24-8-11-21-3-44 7-20 30-47 15-17 38-36 18-14 36-25M438 178q25 20 40 38 24 28 31 45 11 26-3 45-9 13-33 8l-18-6-13-6-27-14-30-19 17-116q17 10 36 25"/><path fill="#005454" d="M137 238q3 4 4 11v13q-1 7-6 10-62 41-88 43-16 1-22-4l-3-3v-1q21-10 45-24 48-28 65-46 3-3 5 1M381 242q2-2 8 3 13 13 64 41l48 25q-6 3-14 3-12 1-28-4-16-6-42-21-19-11-28-18-3-2-6-9l-4-12q0-7 2-8"/><path fill="#0d131a" d="M402 155l-8-6q1-1 9 3 32 15 67 50 16 16 27 32 12 17 16 30 3 12-1 28-4 17-12 22-11 7-32 2-33-8-82-45-6-4-5-5 1-2 7 2 50 35 82 43 19 5 28 0 6-4 10-17 3-14 0-28-6-25-43-61-15-16-32-29-17-14-31-21"/><path fill="#0d131a" d="M481 312h5l4 1 2 1v1q0 4-3 8l-4 3q-2 0-4-5l-2-5 2-4"/><path fill="#fff" d="M485 315l3 1q1 1-1 4l-3 2-2-2-1-4 4-1"/><path fill="#0d131a" d="M501 306h3l1 2q2 3 2 8l-1 5q-3 2-7-1-5-3-5-7-1-2 2-4l5-3"/><path fill="#fff" d="M502 309l2 5v5l-4-2-3-4 2-3 3-1"/><path fill="#0d131a" d="M508 296q2-1 4 1 3 2 5 7t0 7h-5l-8-3-1-1-1-1v-1l2-5 4-4"/><path fill="#fff" d="M510 300l3 4q3 4 2 5l-4-1-5-3 1-3q1-3 3-2"/><path fill="#0d131a" d="M509 286h4q4 1 7 6t2 7l-4 1-9-2q-2 0-2-4l-1-1q0-5 3-7"/><path fill="#fff" d="M511 289q1-1 5 3 3 3 3 5h-4q-5 0-5-2v-3l1-3"/><path fill="#0d131a" d="M508 281v-2l1-3 3-1q3 0 8 5 6 6 4 8l-7 1-6-1q-2 0-3-2v-5"/><path fill="#fff" d="M512 278l5 3q4 4 3 5h-4l-4-1-1-4 1-3"/><path fill="#0d131a" d="M126 152l-4 3q-14 7-31 21-17 13-32 29-37 36-43 61-4 16-1 27 3 12 11 18 9 5 28 0 32-8 82-43 6-4 7-2 1 1-4 5-42 32-74 42-28 9-41 1-10-6-13-23-3-15 1-27 9-29 42-62 33-32 67-49 4-2 5-1"/><path fill="#0d131a" d="M45 311q3 2 3 4l-3 6q-2 5-4 5t-4-4l-4-7q0-2 2-3l5-2 5 1"/><path fill="#fff" d="M41 323l-3-4-2-4 2-1h4l3 1-2 5-2 3"/><path fill="#0d131a" d="M24 306l5 3q3 3 2 5l-5 6q-5 3-7 1l-1-5 1-8 2-2h3"/><path fill="#fff" d="M22 309l4 2 2 2-3 3q-3 3-4 2v-4l1-5"/><path fill="#0d131a" d="M17 297q3 1 4 6 2 4 0 5l-7 3H8q-2-1 0-7 2-5 5-7h4"/><path fill="#fff" d="M15 300l3 2 1 4-4 2h-5l2-4 3-4"/><path fill="#0d131a" d="M11 287h2l1 1q3 2 3 6 0 3-3 4l-7 2-5-1q-1-2 1-6 3-4 8-6"/><path fill="#fff" d="M12 289q2 1 2 3v3l-5 2H5q-1-1 2-5 3-3 5-3"/><path fill="#0d131a" d="M2 280q4-5 9-5 3-1 4 5 0 6-3 8l-5 1q-4 1-6-1-3-2 1-8"/><path fill="#fff" d="M11 278v6l-4 2H3q-1-2 2-5t6-3"/><path fill="#006a6b" d="M454 284q0 64-61 93-48 24-134 24-87 0-137-30-52-31-52-86 0-40 12-72 12-33 36-57t59-37q37-13 83-13 95 0 145 48 49 46 49 130"/><path fill="#fdeabe" d="M360 126q26 11 40 27 16 19 16 42 0 26-17 41-15 12-34 12-8 0-46-6-38-7-57-7-11 0-26 3l-28 7-29 6q-16 3-29 3-26 0-39-17-10-13-10-29 0-23 13-43 12-19 35-32 22-13 52-20 29-7 61-7 23 0 48 5 28 5 50 15"/><path fill="#005454" d="M436 349q-15 18-43 30-52 25-131 25-38 0-72-7-35-7-61-19-28-13-42-31-16-19-16-43l2 3 8 6q14 11 33 21 62 29 148 29 75 0 141-29 21-9 38-19l14-9q-2 24-19 43"/><path fill="#0d131a" d="M403 370q50-28 50-80 0-88-49-135t-141-47q-92 0-141 47-50 47-50 135 0 52 50 80 50 29 141 29 90 0 140-29m55-80q0 53-51 83-52 30-144 30-93 0-144-30-52-30-52-83 0-89 52-137 50-48 144-48 89 0 140 44 55 48 55 141"/><path fill="#0d131a" d="M403 161q-11-16-32-28-20-12-48-19-28-6-60-6-30 0-58 6-29 7-51 19-24 13-37 32-14 20-14 45 0 17 12 28 13 14 36 14 11 0 55-9 45-10 55-10 14 0 54 7l47 6q25 0 39-16 14-15 14-35 0-18-12-34m-78-49q28 7 49 19 22 12 33 28 12 17 12 36 0 22-15 38-16 18-42 18-11 0-48-7-38-7-53-7-11 0-54 10-44 9-56 9-25 0-40-15-12-13-12-31 0-23 12-43 11-19 33-33t52-21q31-7 67-7 33 0 62 6"/><path fill="#fdeabe" d="M44 379q-5-11-5-21 0-34 23-54 22-19 58-19 28 0 47 21 8 9 12 20 4 12 4 23 0 12-4 24-5 12-14 22-21 24-57 24-30 0-51-20-8-9-13-20M414 280q32 0 51 16 21 18 21 48 0 13-6 27-5 13-15 24-23 25-56 25-28 0-47-21-8-9-12-20t-4-22q0-37 21-58 19-19 47-19"/><path fill="#dacaa5" d="M44 366l15 6q25 10 51 10t53-14q13-6 21-13 0 8-5 18-5 12-13 22-23 24-58 24-33 0-54-24-8-9-12-19-4-9-4-13l6 3M346 347l2 5 9 9q18 14 46 14t58-7l23-8q0 9-5 19-6 10-16 19-24 22-54 22-34 0-51-25-12-19-12-48"/><path fill="#0d131a" d="M447 288q-12-5-26-5-13-1-25 2-12 2-20 8-12 8-19 24-8 15-9 33-1 16 5 30 5 14 15 23 7 6 18 10 12 5 24 5 31 0 56-27 8-8 13-20 4-11 5-24 1-29-18-47-7-8-19-12m4-4q12 5 19 12 9 10 14 23t4 27q0 14-5 27-4 12-12 21-11 12-26 19-13 7-28 8t-29-3q-14-4-25-14-9-9-14-24-6-15-5-31 1-18 8-33 7-17 21-26 21-15 53-12 13 2 25 6M38 369q-3-14 0-29 3-14 11-26t20-18q29-16 57-13 29 2 45 22 10 12 13 28 3 14 0 29t-11 28q-9 12-21 20-9 6-22 9-14 3-27 2-32-3-52-25-10-12-13-27m33-69q-11 6-18 17-8 11-11 25-2 15 1 29 4 13 13 24 17 20 47 22 13 1 26-2 12-3 22-10 12-8 20-20 8-13 10-27t-2-27q-3-13-12-23-15-19-41-21t-55 13"/><path fill="#fff" d="M89 258q3 0 14 7 11 8 14 16 2 4-4 11-4 5-8 7l-9 1q-7-1-9-5-2-5-1-21l3-16"/><path fill="#dbdcdc" d="M86 275l10 14q8 7 13 7l-4 3-9 1q-7-1-9-5l-1-8v-12"/><path fill="#fff" d="M36 294q5-2 19 2 13 5 16 8 1 3-1 11l-3 9q-2 3-10 5-8 1-11-2t-7-18q-5-14-3-15"/><path fill="#dbdcdc" d="M52 315q11 8 16 8l-1 1q-2 3-10 5-8 1-11-2l-6-12-4-17q7 10 16 17"/><path fill="#fff" d="M16 360l2-2 6-5q8-7 16-6 9 1 13 9 3 5 2 10 0 5-3 8-3 5-10 5-7-1-17-8-9-7-9-11"/><path fill="#dbdcdc" d="M26 371q-9-6-10-10 8 4 19 6 11 3 19 3-1 4-4 6-3 3-8 3-6-1-16-8"/><path fill="#76491b" d="M99 393l-3-12q-1-15 11-25 11-9 28-9l12 1 6 3q9 12 6 24-2 11-12 19-9 8-22 10t-20-3l-6-8"/><path fill="#5c370c" d="M99 392l-3-11 14 1q25 0 50-12l-4 14-9 11q-9 7-22 9t-20-3l-6-9"/><path fill="#76491b" d="M401 396q-16 1-24-8-8-10-7-23 1-11 7-16 8-8 24-7 8 0 13 2 6 2 8 6 6 8 7 19 2 13-5 19-8 7-23 8"/><path fill="#fff" d="M418 266q13-12 16-11 2 1 2 18l-2 19q-1 2-7 3-6 0-11-2l-9-7q-4-4-3-7l14-13"/><path fill="#dbdcdc" d="M434 292q-1 2-7 3-6 0-11-2l-2-2q7 3 14-9 6-9 7-20v18l-1 12"/><path fill="#fff" d="M456 292q2-2 16-6 14-3 16-1 1 1-6 16-7 14-9 15-1 1-7-1l-9-5q-3-2-3-9-1-6 2-9"/><path fill="#dbdcdc" d="M482 301q-7 14-9 15-1 1-7-1l-9-5q-2-1-2-4l2 2q7 5 17-6 5-4 14-17 1 1-6 16"/><path fill="#fff" d="M478 342q3-5 5-5 3 0 14 5t11 7l-9 7q-10 6-13 6-2 0-6-4l-4-8 2-8"/><path fill="#dbdcdc" d="M482 359q-3-2-5-6l16-2 15-3v1l-9 7q-10 6-13 6-2 0-4-3"/><path fill="#5c370c" d="M401 396q-16 1-24-8-7-8-7-19 15 6 33 6l27-1q0 9-6 14-8 7-23 8"/><path fill="#0d131a" d="M379 386q8 8 21 8 14 0 24-9 4-4 4-13 0-7-3-13-2-6-6-9-7-6-18-7t-20 5q-4 3-6 7-3 4-3 9-1 6 1 12t6 10m-1-42q10-7 23-5 12 1 20 8 10 7 12 21 2 15-6 21-11 10-26 10-15-1-25-10-10-10-9-24 1-15 11-21M434 271l-1-14-14 10-13 12v3l4 5 7 4 10 2q5-1 6-3l1-7v-12m-5-16q5-3 6-2 2 0 3 5v20l-2 14q-1 4-7 5t-14-2q-7-3-11-8-3-6 0-10 2-4 10-11 9-8 15-11M486 286l-15 3-13 4q-3 2-3 6l2 6q1 3 4 5 2 3 7 4h5q2-1 7-13l6-15m-31 4q2-2 10-4l16-4h8q2 1 0 6l-6 18q-5 11-7 12-3 2-9 0l-9-4q-6-6-7-14 0-7 4-10M483 339q-2 0-3 4-2 3-2 7l3 7q3 3 5 3l10-5 11-7-12-6q-10-4-12-3m-7 1q3-5 7-5 3-1 15 4 11 5 13 8l-1 3q-1 3-11 8-10 6-13 6-4 0-8-4t-4-9q0-6 2-11M107 358q-9 8-10 19 0 10 5 18 5 7 18 7 12 0 22-7 12-9 16-19 3-9-3-20-2-3-8-6-5-2-12-1-16 0-28 9m-14 18q1-13 11-22 12-9 30-10 9 0 15 3 6 2 9 7 7 12 3 23-3 11-17 21-10 8-23 8-14-1-22-9-7-8-6-21M90 261l-2 8v12q0 10 2 13l6 2h10q4-1 7-6l3-6v-1q-3-8-13-16-9-6-13-6m-2-4q1-1 6 1l10 5q13 9 16 20 1 4-3 10-5 6-9 7-5 2-13 1-7-2-9-5-3-5-2-21t4-18M34 293q4-4 17 0 15 3 21 9 3 3 1 13-1 10-6 13t-13 3q-7 0-10-3l-7-17q-6-16-3-18m6 2h-3v1l4 15q4 12 6 14 1 2 7 2t10-3l4-5 2-7v-5l-1-2q-3-3-13-7-9-3-16-3M32 352q-9 3-12 7l-2 2q0 4 9 10 9 5 14 5 5 1 9-3 3-3 4-8v-1l-1-5-3-5q-3-4-8-5l-10 3m-7 22q-10-7-11-12 0-5 11-12 12-5 18-5 5 1 11 7 5 6 4 13 0 7-5 11-5 5-12 4-6 0-16-6"/></svg>